P1
# Premier exemple de fichier PBM 
6 6
000000
010010
010010
000000
011110
000000